<svg xmlns="http://www.w3.org/2000/svg" width="540" height="660" viewBox="0 0 540 660">
<style>
  text { font-family: monospace; font-size: 14px; fill: #333; }
  .line { stroke: #333; stroke-width: 1; fill: none; }
  .dashed { stroke-dasharray: 4,2; }
</style>
  <path class="line" d="M 275 40 Q 275 30 280 30"/>
  <line class="line" x1="280" y1="30" x2="290" y2="30"/>
  <line class="line" x1="290" y1="30" x2="300" y2="30"/>
  <line class="line" x1="300" y1="30" x2="310" y2="30"/>
  <line class="line" x1="310" y1="30" x2="320" y2="30"/>
  <line class="line" x1="320" y1="30" x2="330" y2="30"/>
  <line class="line" x1="330" y1="30" x2="340" y2="30"/>
  <line class="line" x1="340" y1="30" x2="350" y2="30"/>
  <line class="line" x1="350" y1="30" x2="360" y2="30"/>
  <path class="line" d="M 360 30 Q 365 30 365 40"/>
  <line class="line" x1="275" y1="40" x2="275" y2="60"/>
  <line class="line" x1="455" y1="40" x2="455" y2="60"/>
  <path class="line" d="M 275 60 Q 275 70 280 70"/>
  <line class="line" x1="280" y1="70" x2="290" y2="70"/>
  <line class="line" x1="290" y1="70" x2="300" y2="70"/>
  <line class="line" x1="300" y1="70" x2="310" y2="70"/>
  <line class="line" x1="310" y1="70" x2="320" y2="70"/>
  <path class="line" d="M 320 70 L 330 70 M 325 70 L 325 80"/>
  <line class="line" x1="330" y1="70" x2="340" y2="70"/>
  <line class="line" x1="340" y1="70" x2="350" y2="70"/>
  <line class="line" x1="350" y1="70" x2="360" y2="70"/>
  <path class="line" d="M 360 70 Q 365 70 365 60"/>
  <line class="line" x1="275" y1="80" x2="275" y2="100"/>
  <line class="line" x1="275" y1="100" x2="275" y2="120"/>
  <line class="line" x1="275" y1="120" x2="275" y2="140"/>
  <path class="line" d="M 195 180 Q 195 170 200 170"/>
  <line class="line" x1="200" y1="170" x2="210" y2="170"/>
  <line class="line" x1="210" y1="170" x2="220" y2="170"/>
  <line class="line" x1="220" y1="170" x2="230" y2="170"/>
  <line class="line" x1="230" y1="170" x2="240" y2="170"/>
  <line class="line" x1="240" y1="170" x2="250" y2="170"/>
  <line class="line" x1="250" y1="170" x2="260" y2="170"/>
  <line class="line" x1="260" y1="170" x2="270" y2="170"/>
  <line class="line" x1="270" y1="170" x2="280" y2="170"/>
  <line class="line" x1="280" y1="170" x2="290" y2="170"/>
  <line class="line" x1="290" y1="170" x2="300" y2="170"/>
  <line class="line" x1="300" y1="170" x2="310" y2="170"/>
  <line class="line" x1="310" y1="170" x2="320" y2="170"/>
  <line class="line" x1="320" y1="170" x2="330" y2="170"/>
  <line class="line" x1="330" y1="170" x2="340" y2="170"/>
  <line class="line" x1="340" y1="170" x2="350" y2="170"/>
  <path class="line" d="M 350 170 Q 355 170 355 180"/>
  <line class="line" x1="195" y1="180" x2="195" y2="200"/>
  <line class="line" x1="355" y1="180" x2="355" y2="200"/>
  <path class="line" d="M 195 200 Q 195 210 200 210"/>
  <line class="line" x1="200" y1="210" x2="210" y2="210"/>
  <line class="line" x1="210" y1="210" x2="220" y2="210"/>
  <line class="line" x1="220" y1="210" x2="230" y2="210"/>
  <line class="line" x1="230" y1="210" x2="240" y2="210"/>
  <line class="line" x1="240" y1="210" x2="250" y2="210"/>
  <line class="line" x1="250" y1="210" x2="260" y2="210"/>
  <line class="line" x1="260" y1="210" x2="270" y2="210"/>
  <path class="line" d="M 270 210 L 280 210 M 275 210 L 275 220"/>
  <line class="line" x1="280" y1="210" x2="290" y2="210"/>
  <line class="line" x1="290" y1="210" x2="300" y2="210"/>
  <line class="line" x1="300" y1="210" x2="310" y2="210"/>
  <line class="line" x1="310" y1="210" x2="320" y2="210"/>
  <line class="line" x1="320" y1="210" x2="330" y2="210"/>
  <line class="line" x1="330" y1="210" x2="340" y2="210"/>
  <line class="line" x1="340" y1="210" x2="350" y2="210"/>
  <path class="line" d="M 350 210 Q 355 210 355 200"/>
  <line class="line dashed" x1="275" y1="220" x2="275" y2="240"/>
  <line class="line dashed" x1="275" y1="240" x2="275" y2="260"/>
  <path class="line" d="M 75 280 L 75 270 L 80 270"/>
  <line class="line dashed" x1="80" y1="270" x2="90" y2="270"/>
  <line class="line dashed" x1="90" y1="270" x2="100" y2="270"/>
  <line class="line dashed" x1="100" y1="270" x2="110" y2="270"/>
  <line class="line dashed" x1="110" y1="270" x2="120" y2="270"/>
  <line class="line dashed" x1="120" y1="270" x2="130" y2="270"/>
  <line class="line dashed" x1="130" y1="270" x2="140" y2="270"/>
  <line class="line dashed" x1="140" y1="270" x2="150" y2="270"/>
  <line class="line dashed" x1="150" y1="270" x2="160" y2="270"/>
  <line class="line dashed" x1="160" y1="270" x2="170" y2="270"/>
  <line class="line dashed" x1="170" y1="270" x2="180" y2="270"/>
  <line class="line dashed" x1="180" y1="270" x2="190" y2="270"/>
  <line class="line dashed" x1="190" y1="270" x2="200" y2="270"/>
  <line class="line dashed" x1="200" y1="270" x2="210" y2="270"/>
  <line class="line dashed" x1="210" y1="270" x2="220" y2="270"/>
  <line class="line dashed" x1="220" y1="270" x2="230" y2="270"/>
  <line class="line dashed" x1="230" y1="270" x2="240" y2="270"/>
  <line class="line dashed" x1="240" y1="270" x2="250" y2="270"/>
  <line class="line dashed" x1="250" y1="270" x2="260" y2="270"/>
  <line class="line dashed" x1="260" y1="270" x2="270" y2="270"/>
  <path class="line" d="M 270 270 L 280 270 M 275 260 L 275 270"/>
  <line class="line dashed" x1="280" y1="270" x2="290" y2="270"/>
  <line class="line dashed" x1="290" y1="270" x2="300" y2="270"/>
  <line class="line dashed" x1="300" y1="270" x2="310" y2="270"/>
  <line class="line dashed" x1="310" y1="270" x2="320" y2="270"/>
  <line class="line dashed" x1="320" y1="270" x2="330" y2="270"/>
  <line class="line dashed" x1="330" y1="270" x2="340" y2="270"/>
  <line class="line dashed" x1="340" y1="270" x2="350" y2="270"/>
  <line class="line dashed" x1="350" y1="270" x2="360" y2="270"/>
  <line class="line dashed" x1="360" y1="270" x2="370" y2="270"/>
  <line class="line dashed" x1="370" y1="270" x2="380" y2="270"/>
  <line class="line dashed" x1="380" y1="270" x2="390" y2="270"/>
  <line class="line dashed" x1="390" y1="270" x2="400" y2="270"/>
  <line class="line dashed" x1="400" y1="270" x2="410" y2="270"/>
  <line class="line dashed" x1="410" y1="270" x2="420" y2="270"/>
  <line class="line dashed" x1="420" y1="270" x2="430" y2="270"/>
  <line class="line dashed" x1="430" y1="270" x2="440" y2="270"/>
  <line class="line dashed" x1="440" y1="270" x2="450" y2="270"/>
  <line class="line dashed" x1="450" y1="270" x2="460" y2="270"/>
  <line class="line dashed" x1="460" y1="270" x2="470" y2="270"/>
  <path class="line" d="M 470 270 L 475 270 L 475 280"/>
  <path class="line" d="M 15 320 Q 15 310 20 310"/>
  <line class="line" x1="20" y1="310" x2="30" y2="310"/>
  <line class="line" x1="30" y1="310" x2="40" y2="310"/>
  <line class="line" x1="40" y1="310" x2="50" y2="310"/>
  <line class="line" x1="50" y1="310" x2="60" y2="310"/>
  <line class="line" x1="60" y1="310" x2="70" y2="310"/>
  <line class="line" x1="70" y1="310" x2="80" y2="310"/>
  <line class="line" x1="80" y1="310" x2="90" y2="310"/>
  <line class="line" x1="90" y1="310" x2="100" y2="310"/>
  <line class="line" x1="100" y1="310" x2="110" y2="310"/>
  <line class="line" x1="110" y1="310" x2="120" y2="310"/>
  <path class="line" d="M 120 310 Q 125 310 125 320"/>
  <path class="line" d="M 215 320 Q 215 310 220 310"/>
  <line class="line" x1="220" y1="310" x2="230" y2="310"/>
  <line class="line" x1="230" y1="310" x2="240" y2="310"/>
  <line class="line" x1="240" y1="310" x2="250" y2="310"/>
  <line class="line" x1="250" y1="310" x2="260" y2="310"/>
  <line class="line" x1="260" y1="310" x2="270" y2="310"/>
  <line class="line" x1="270" y1="310" x2="280" y2="310"/>
  <line class="line" x1="280" y1="310" x2="290" y2="310"/>
  <line class="line" x1="290" y1="310" x2="300" y2="310"/>
  <line class="line" x1="300" y1="310" x2="310" y2="310"/>
  <line class="line" x1="310" y1="310" x2="320" y2="310"/>
  <path class="line" d="M 320 310 Q 325 310 325 320"/>
  <path class="line" d="M 415 320 Q 415 310 420 310"/>
  <line class="line" x1="420" y1="310" x2="430" y2="310"/>
  <line class="line" x1="430" y1="310" x2="440" y2="310"/>
  <line class="line" x1="440" y1="310" x2="450" y2="310"/>
  <line class="line" x1="450" y1="310" x2="460" y2="310"/>
  <line class="line" x1="460" y1="310" x2="470" y2="310"/>
  <line class="line" x1="470" y1="310" x2="480" y2="310"/>
  <line class="line" x1="480" y1="310" x2="490" y2="310"/>
  <line class="line" x1="490" y1="310" x2="500" y2="310"/>
  <line class="line" x1="500" y1="310" x2="510" y2="310"/>
  <line class="line" x1="510" y1="310" x2="520" y2="310"/>
  <path class="line" d="M 520 310 Q 525 310 525 320"/>
  <line class="line" x1="15" y1="320" x2="15" y2="340"/>
  <line class="line" x1="125" y1="320" x2="125" y2="340"/>
  <line class="line" x1="215" y1="320" x2="215" y2="340"/>
  <line class="line" x1="325" y1="320" x2="325" y2="340"/>
  <line class="line" x1="415" y1="320" x2="415" y2="340"/>
  <line class="line" x1="525" y1="320" x2="525" y2="340"/>
  <path class="line" d="M 15 340 Q 15 350 20 350"/>
  <line class="line" x1="20" y1="350" x2="30" y2="350"/>
  <line class="line" x1="30" y1="350" x2="40" y2="350"/>
  <line class="line" x1="40" y1="350" x2="50" y2="350"/>
  <line class="line" x1="50" y1="350" x2="60" y2="350"/>
  <line class="line" x1="60" y1="350" x2="70" y2="350"/>
  <path class="line" d="M 70 350 L 80 350 M 75 350 L 75 360"/>
  <line class="line" x1="80" y1="350" x2="90" y2="350"/>
  <line class="line" x1="90" y1="350" x2="100" y2="350"/>
  <line class="line" x1="100" y1="350" x2="110" y2="350"/>
  <line class="line" x1="110" y1="350" x2="120" y2="350"/>
  <path class="line" d="M 120 350 Q 125 350 125 340"/>
  <path class="line" d="M 215 340 Q 215 350 220 350"/>
  <line class="line" x1="220" y1="350" x2="230" y2="350"/>
  <line class="line" x1="230" y1="350" x2="240" y2="350"/>
  <line class="line" x1="240" y1="350" x2="250" y2="350"/>
  <line class="line" x1="250" y1="350" x2="260" y2="350"/>
  <line class="line" x1="260" y1="350" x2="270" y2="350"/>
  <path class="line" d="M 270 350 L 280 350 M 275 350 L 275 360"/>
  <line class="line" x1="280" y1="350" x2="290" y2="350"/>
  <line class="line" x1="290" y1="350" x2="300" y2="350"/>
  <line class="line" x1="300" y1="350" x2="310" y2="350"/>
  <line class="line" x1="310" y1="350" x2="320" y2="350"/>
  <path class="line" d="M 320 350 Q 325 350 325 340"/>
  <path class="line" d="M 415 340 Q 415 350 420 350"/>
  <line class="line" x1="420" y1="350" x2="430" y2="350"/>
  <line class="line" x1="430" y1="350" x2="440" y2="350"/>
  <line class="line" x1="440" y1="350" x2="450" y2="350"/>
  <line class="line" x1="450" y1="350" x2="460" y2="350"/>
  <line class="line" x1="460" y1="350" x2="470" y2="350"/>
  <path class="line" d="M 470 350 L 480 350 M 475 350 L 475 360"/>
  <line class="line" x1="480" y1="350" x2="490" y2="350"/>
  <line class="line" x1="490" y1="350" x2="500" y2="350"/>
  <line class="line" x1="500" y1="350" x2="510" y2="350"/>
  <line class="line" x1="510" y1="350" x2="520" y2="350"/>
  <path class="line" d="M 520 350 Q 525 350 525 340"/>
  <line class="line" x1="75" y1="360" x2="75" y2="380"/>
  <line class="line" x1="275" y1="360" x2="275" y2="380"/>
  <line class="line" x1="475" y1="360" x2="475" y2="380"/>
  <line class="line" x1="75" y1="380" x2="75" y2="400"/>
  <line class="line" x1="275" y1="380" x2="275" y2="400"/>
  <line class="line" x1="475" y1="380" x2="475" y2="400"/>
  <line class="line" x1="75" y1="400" x2="75" y2="420"/>
  <line class="line" x1="275" y1="400" x2="275" y2="420"/>
  <line class="line" x1="475" y1="400" x2="475" y2="420"/>
  <line class="line" x1="75" y1="420" x2="75" y2="440"/>
  <line class="line" x1="475" y1="420" x2="475" y2="440"/>
  <line class="line" x1="75" y1="440" x2="75" y2="460"/>
  <path class="line" d="M 285 460 Q 285 450 290 450"/>
  <line class="line" x1="290" y1="450" x2="300" y2="450"/>
  <line class="line" x1="300" y1="450" x2="310" y2="450"/>
  <line class="line" x1="310" y1="450" x2="320" y2="450"/>
  <line class="line" x1="320" y1="450" x2="330" y2="450"/>
  <line class="line" x1="330" y1="450" x2="340" y2="450"/>
  <line class="line" x1="340" y1="450" x2="350" y2="450"/>
  <line class="line" x1="350" y1="450" x2="360" y2="450"/>
  <path class="line" d="M 360 450 Q 365 450 365 460"/>
  <line class="line" x1="565" y1="440" x2="565" y2="460"/>
  <path class="line" d="M 75 460 L 75 470 L 80 470"/>
  <line class="line" x1="80" y1="470" x2="90" y2="470"/>
  <line class="line" x1="90" y1="470" x2="100" y2="470"/>
  <line class="line" x1="100" y1="470" x2="110" y2="470"/>
  <line class="line" x1="110" y1="470" x2="120" y2="470"/>
  <line class="line" x1="120" y1="470" x2="130" y2="470"/>
  <line class="line" x1="130" y1="470" x2="140" y2="470"/>
  <line class="line" x1="140" y1="470" x2="150" y2="470"/>
  <line class="line" x1="150" y1="470" x2="160" y2="470"/>
  <line class="line" x1="160" y1="470" x2="170" y2="470"/>
  <line class="line" x1="170" y1="470" x2="180" y2="470"/>
  <line class="line" x1="180" y1="470" x2="190" y2="470"/>
  <line class="line" x1="190" y1="470" x2="200" y2="470"/>
  <line class="line" x1="200" y1="470" x2="210" y2="470"/>
  <line class="line" x1="210" y1="470" x2="220" y2="470"/>
  <polygon points="220,466 230,470 220,474" fill="#333"/>
  <line class="line" x1="285" y1="460" x2="285" y2="480"/>
  <line class="line" x1="455" y1="460" x2="455" y2="480"/>
  <polygon points="510,466 500,470 510,474" fill="#333"/>
  <line class="line" x1="510" y1="470" x2="520" y2="470"/>
  <line class="line" x1="520" y1="470" x2="530" y2="470"/>
  <line class="line" x1="530" y1="470" x2="540" y2="470"/>
  <line class="line" x1="540" y1="470" x2="550" y2="470"/>
  <line class="line" x1="550" y1="470" x2="560" y2="470"/>
  <line class="line" x1="560" y1="470" x2="570" y2="470"/>
  <line class="line" x1="570" y1="470" x2="580" y2="470"/>
  <line class="line" x1="580" y1="470" x2="590" y2="470"/>
  <line class="line" x1="590" y1="470" x2="600" y2="470"/>
  <line class="line" x1="600" y1="470" x2="610" y2="470"/>
  <line class="line" x1="610" y1="470" x2="620" y2="470"/>
  <line class="line" x1="620" y1="470" x2="630" y2="470"/>
  <line class="line" x1="630" y1="470" x2="640" y2="470"/>
  <line class="line" x1="640" y1="470" x2="650" y2="470"/>
  <path class="line" d="M 650 470 L 655 470 L 655 460"/>
  <path class="line" d="M 285 480 Q 285 490 290 490"/>
  <line class="line" x1="290" y1="490" x2="300" y2="490"/>
  <line class="line" x1="300" y1="490" x2="310" y2="490"/>
  <line class="line" x1="310" y1="490" x2="320" y2="490"/>
  <path class="line" d="M 320 490 L 330 490 M 325 490 L 325 500"/>
  <line class="line" x1="330" y1="490" x2="340" y2="490"/>
  <line class="line" x1="340" y1="490" x2="350" y2="490"/>
  <line class="line" x1="350" y1="490" x2="360" y2="490"/>
  <path class="line" d="M 360 490 Q 365 490 365 480"/>
  <line class="line" x1="275" y1="500" x2="275" y2="520"/>
  <line class="line" x1="275" y1="520" x2="275" y2="540"/>
  <line class="line" x1="275" y1="540" x2="275" y2="560"/>
  <text x="260" y="596">╔</text>
  <text x="270" y="596">═</text>
  <text x="280" y="596">═</text>
  <text x="290" y="596">═</text>
  <text x="300" y="596">═</text>
  <text x="310" y="596">═</text>
  <text x="320" y="596">═</text>
  <text x="330" y="596">═</text>
  <text x="340" y="596">═</text>
  <text x="350" y="596">═</text>
  <text x="360" y="596">═</text>
  <text x="370" y="596">╗</text>
  <text x="260" y="616">║</text>
  <text x="540" y="616">║</text>
  <text x="260" y="636">╚</text>
  <text x="270" y="636">═</text>
  <text x="280" y="636">═</text>
  <text x="290" y="636">═</text>
  <text x="300" y="636">═</text>
  <text x="310" y="636">═</text>
  <text x="320" y="636">═</text>
  <text x="330" y="636">═</text>
  <text x="340" y="636">═</text>
  <text x="350" y="636">═</text>
  <text x="360" y="636">═</text>
  <text x="370" y="636">╝</text>
  <text x="330" y="56">client</text>
  <text x="270" y="156">▼</text>
  <text x="210" y="196">load balancer</text>
  <text x="70" y="296">▼                   ▼                   ▼</text>
  <text x="30" y="336">server 1</text>
  <text x="230" y="336">server 2</text>
  <text x="430" y="336">server 3</text>
  <text x="270" y="436">▼</text>
  <text x="340" y="476">cache</text>
  <text x="270" y="576">▼</text>
  <text x="360" y="616">database</text>
</svg>